<svg xmlns="http://www.w3.org/2000/svg" width="78" height="78" viewBox="0 0 78 70" fill="none">
  <g >
    <g>
      <path d="M22.2327 60.7838L23.3626 61.3515C28.0712 64.1892 33.3444 65.5136 38.6178 65.5136C55.191 65.5136 68.7509 51.892 68.7509 35.2433C68.7509 27.2975 65.5491 19.5407 59.8993 13.8649C54.2493 8.18917 46.7158 4.97308 38.6178 4.97308C22.0446 4.97308 8.48439 18.5947 8.67284 35.4326C8.67284 41.1081 10.3678 46.5948 13.1927 51.3243L13.946 52.4596L10.9329 63.6218L22.2327 60.7838Z" fill="#263C65"/>
    </g>
    <path d="M63.1364 10.2162C56.7331 3.59471 47.8815 0 38.8415 0C19.6318 0 4.18845 15.7026 4.37663 34.8107C4.37663 40.8648 6.07162 46.7299 8.89678 52.027L4 70L22.2682 65.2702C27.3532 68.1083 33.003 69.4326 38.6533 69.4326C57.6748 69.4326 73.1181 53.7297 73.1181 34.6219C73.1181 25.3515 69.5394 16.6486 63.1364 10.2162ZM38.8415 63.5678C33.7565 63.5678 28.6715 62.2437 24.3398 59.595L23.2099 59.0274L12.2868 61.8651L15.1116 51.0815L14.3584 49.9462C6.07162 36.5139 10.0267 18.7297 23.5866 10.4052C37.1465 2.08105 54.6614 6.0541 62.9482 19.6757C71.2347 33.2973 67.2796 50.892 53.72 59.2164C49.388 62.0542 44.1149 63.5678 38.8415 63.5678ZM55.4147 42.568L53.3431 41.622C53.3431 41.622 50.33 40.2977 48.4466 39.3517C48.2581 39.3517 48.0699 39.1624 47.8815 39.1624C47.3164 39.1624 46.9398 39.3517 46.5631 39.541C46.5631 39.541 46.375 39.73 43.7382 42.7571C43.5498 43.1354 43.1732 43.3247 42.7965 43.3247H42.6081C42.4199 43.3247 42.0433 43.1354 41.8548 42.9464L40.9131 42.568C38.8415 41.622 36.9583 40.4867 35.4515 38.9733C35.0749 38.595 34.5098 38.2166 34.1331 37.8383C32.8148 36.5139 31.4964 35.0003 30.555 33.2976L30.3665 32.9192C30.1783 32.7299 30.1783 32.5409 29.9899 32.1625C29.9899 31.7842 29.9899 31.4058 30.1783 31.2165C30.1783 31.2165 30.9316 30.2705 31.4964 29.7031C31.8733 29.3245 32.0615 28.7571 32.4382 28.3788C32.8148 27.8111 33.0032 27.0544 32.8148 26.4868C32.6266 25.5408 30.3665 20.4327 29.8017 19.2976C29.4248 18.73 29.0484 18.5409 28.4834 18.3516H26.4117C26.0348 18.3516 25.6585 18.5409 25.2816 18.5409L25.0931 18.73C24.7165 18.9193 24.3398 19.2976 23.9632 19.4867C23.5866 19.8653 23.3981 20.2434 23.0215 20.622C21.7031 22.3247 20.9499 24.4057 20.9499 26.4868C20.9499 28.0002 21.3265 29.5138 21.8916 30.8382L22.08 31.4058C23.775 35.0003 26.0348 38.2166 29.0484 41.0544L29.8017 41.8111C30.3665 42.3787 30.9316 42.7571 31.3083 43.3245C35.2633 46.7301 39.7832 49.1895 44.8681 50.5139C45.4332 50.7029 46.1865 50.7029 46.7516 50.8922H48.6348C49.5765 50.8922 50.7064 50.5139 51.4599 50.1355C52.0247 49.7572 52.4014 49.7572 52.778 49.3788L53.1549 49.0002C53.5315 48.6219 53.9082 48.4328 54.2848 48.0545C54.6614 47.6761 55.0381 47.2978 55.2265 46.9192C55.6032 46.1625 55.7913 45.2165 55.9798 44.2707V42.9464C55.9798 42.9464 55.7913 42.7571 55.4147 42.568Z" fill="white"/>
  </g>
  <defs>
    <filter id="filter0_d_58_1837" x="0" y="0" width="72.1182" height="78" filterUnits="userSpaceOnUse" color-interpolation-filters="sRGB">
      <feFlood flood-opacity="0" result="BackgroundImageFix"/>
      <feColorMatrix in="SourceAlpha" type="matrix" values="0 0 0 0 0 0 0 0 0 0 0 0 0 0 0 0 0 0 127 0" result="hardAlpha"/>
      <feOffset dy="4"/>
      <feGaussianBlur stdDeviation="2"/>
      <feComposite in2="hardAlpha" operator="out"/>
      <feColorMatrix type="matrix" values="0 0 0 0 0 0 0 0 0 0 0 0 0 0 0 0 0 0 0.25 0"/>
      <feBlend mode="normal" in2="BackgroundImageFix" result="effect1_dropShadow_58_1837"/>
      <feBlend mode="normal" in="SourceGraphic" in2="effect1_dropShadow_58_1837" result="shape"/>
    </filter>
    <filter id="filter1_d_58_1837" x="-43.3291" y="-47.0269" width="212.08" height="212.54" filterUnits="userSpaceOnUse" color-interpolation-filters="sRGB">
      <feFlood flood-opacity="0" result="BackgroundImageFix"/>
      <feColorMatrix in="SourceAlpha" type="matrix" values="0 0 0 0 0 0 0 0 0 0 0 0 0 0 0 0 0 0 127 0" result="hardAlpha"/>
      <feOffset dx="24" dy="24"/>
      <feGaussianBlur stdDeviation="38"/>
      <feComposite in2="hardAlpha" operator="out"/>
      <feColorMatrix type="matrix" values="0 0 0 0 0 0 0 0 0 0 0 0 0 0 0 0 0 0 0.43 0"/>
      <feBlend mode="normal" in2="BackgroundImageFix" result="effect1_dropShadow_58_1837"/>
      <feBlend mode="normal" in="SourceGraphic" in2="effect1_dropShadow_58_1837" result="shape"/>
    </filter>
    <clipPath id="clip0_58_1837">
      <rect width="69.1181" height="70" fill="white" transform="translate(4)"/>
    </clipPath>
  </defs>
</svg>